<?xml version="1.0" ?><!DOCTYPE svg  PUBLIC '-//W3C//DTD SVG 1.1//EN'  'http://www.w3.org/Graphics/SVG/1.1/DTD/svg11.dtd'><svg enable-background="new 0 0 50 50" height="50px" version="1.1" viewBox="0 0 50 50" width="50px" xml:space="preserve" xmlns="http://www.w3.org/2000/svg" xmlns:xlink="http://www.w3.org/1999/xlink"><g id="Layer_23"/><g id="Layer_22"/><g id="Layer_21"/><g id="Layer_20"/><g id="Layer_19"/><g id="Layer_18"/><g id="Layer_17"/><g id="Layer_16"/><g id="Layer_15"/><g id="Layer_14"/><g id="Layer_13"><path clip-rule="evenodd" d="M18.636,48.69c4.905,1.772,7.818,1.714,12.729,0.021v-9.455   c0.282-3.559,1.386-6.465,3.525-9.299c4.09-0.222,8.117-3.517,8.265-7.778c2.505-1.02,3.864-3.773,3.756-6.449   c-0.148-3.677-2.776-5.761-6.167-6.495c0.175-4.721-5.09-7.23-9.277-6.689c-3.527-3.4-9.413-3.395-12.939,0.004   c-4.21-0.549-9.455,1.97-9.273,6.685c-3.392,0.734-6.019,2.819-6.166,6.495c-0.108,2.676,1.251,5.429,3.756,6.448   c0.148,4.261,4.177,7.556,8.266,7.778c2.14,2.834,3.244,5.74,3.525,9.299V48.69z M22.893,29.859   c1.287,0.314,2.583,0.347,3.878,0.08l-1.938,7.03L22.893,29.859z" fill-rule="evenodd"/></g><g id="Layer_12"/><g id="Layer_11"/><g id="Layer_10"/><g id="Layer_9"/><g id="Layer_8"/><g id="Layer_7"/><g id="Layer_6"/><g id="Layer_5"/><g id="Layer_4"/><g id="Layer_3"/><g id="Layer_2"/></svg>